<?xml version="1.0" standalone="no"?>
<!DOCTYPE svg PUBLIC "-//W3C//DTD SVG 20010904//EN"
 "http://www.w3.org/TR/2001/REC-SVG-20010904/DTD/svg10.dtd">
<svg version="1.0" xmlns="http://www.w3.org/2000/svg"
 width="544.000000pt" height="544.000000pt" viewBox="0 0 544.000000 544.000000"
 preserveAspectRatio="xMidYMid meet">
<metadata>
Created by potrace 1.14, written by Peter Selinger 2001-2017
</metadata>
<g transform="translate(0.000000,544.000000) scale(0.100000,-0.100000)"
fill="#000000" stroke="none">
<path d="M2573 5254 c-87 -42 -52 20 -532 -959 -89 -181 -166 -337 -171 -345
-5 -8 -21 -40 -36 -71 -42 -92 -120 -151 -214 -164 -25 -3 -56 -8 -70 -10 -59
-10 -117 -18 -142 -19 -16 -1 -28 -3 -28 -6 0 -3 -10 -5 -22 -6 -25 0 -78 -7
-178 -23 -66 -10 -115 -17 -186 -27 -54 -7 -84 -12 -119 -17 -16 -3 -50 -8
-75 -11 -25 -3 -56 -8 -69 -11 -13 -2 -49 -7 -80 -10 -31 -4 -63 -8 -71 -10
-8 -2 -37 -7 -65 -11 -27 -3 -61 -8 -75 -11 -14 -2 -38 -6 -55 -8 -16 -2 -50
-6 -75 -10 -25 -3 -56 -8 -70 -10 -14 -1 -25 -4 -25 -5 0 -1 -12 -3 -28 -5
-66 -9 -156 -94 -177 -169 -15 -53 -6 -134 19 -184 10 -21 141 -156 296 -307
153 -148 330 -322 395 -385 65 -63 184 -179 264 -257 166 -162 190 -199 191
-288 0 -54 -3 -79 -19 -165 -3 -14 -10 -52 -15 -85 -6 -33 -12 -71 -15 -85 -2
-14 -10 -59 -16 -100 -7 -41 -14 -84 -16 -95 -7 -32 -26 -148 -29 -172 -2 -12
-6 -34 -9 -50 -3 -15 -8 -44 -11 -63 -3 -19 -8 -46 -10 -60 -8 -40 -12 -62
-20 -110 -3 -25 -18 -106 -31 -180 -14 -74 -27 -151 -29 -170 -3 -19 -7 -46
-10 -60 -28 -129 -13 -208 53 -278 54 -58 95 -76 177 -76 75 0 98 8 233 84 39
22 72 37 72 33 0 -5 4 -3 8 3 4 6 79 48 167 94 88 45 192 99 230 120 110 59
282 149 380 199 50 25 92 48 95 51 3 3 62 34 131 69 96 49 137 64 175 66 48 2
126 -17 152 -38 7 -6 45 -27 85 -47 40 -20 126 -65 192 -100 66 -35 161 -84
210 -109 50 -25 92 -48 95 -51 3 -3 34 -20 70 -38 76 -39 327 -170 420 -220
197 -105 223 -116 282 -118 96 -4 176 40 225 123 22 38 27 58 27 117 0 39 -3
84 -7 100 -3 16 -9 50 -13 75 -7 49 -8 53 -25 146 -6 33 -13 69 -15 80 -5 37
-15 100 -20 125 -2 14 -7 42 -10 63 -3 21 -7 44 -8 50 -6 28 -16 84 -20 107
-2 14 -9 52 -15 85 -5 33 -13 80 -16 105 -4 24 -8 47 -10 50 -2 3 -6 26 -9 50
-4 25 -9 59 -13 75 -3 17 -7 39 -9 50 -2 11 -5 35 -9 53 -3 17 -7 47 -10 65
-2 17 -7 43 -10 57 -24 113 -28 197 -10 251 19 56 23 60 469 494 644 626 663
645 679 702 36 122 -5 228 -115 298 -16 9 -28 14 -28 10 0 -4 -6 -3 -12 3 -7
5 -33 12 -58 16 -25 3 -56 8 -70 10 -14 3 -47 8 -75 11 -27 4 -61 8 -75 10
-14 2 -43 6 -65 9 -22 3 -56 8 -75 10 -19 3 -53 8 -75 11 -22 4 -53 9 -70 11
-16 2 -41 6 -55 9 -14 2 -45 7 -70 10 -25 3 -70 10 -100 15 -30 5 -73 11 -95
14 -37 5 -98 13 -154 22 -13 2 -45 6 -70 10 -25 3 -57 8 -71 10 -14 2 -74 11
-135 19 -178 25 -168 23 -230 51 -72 32 -58 5 -686 1279 -80 163 -121 214
-192 237 -70 24 -135 21 -194 -8z"/>
</g>
</svg>
